<?xml version="1.0" encoding="UTF-8"?>
<svg id="t2" data-name="t2" xmlns="http://www.w3.org/2000/svg" viewBox="0 0 240.92 133.37">
  <defs>
    <style>
      .cls-1 {
        stroke: #000;
        stroke-linecap: round;
        stroke-linejoin: round;
        stroke-width: 2px;
      }
    </style>
  </defs>
  <g id="_logo">
    <path class="cls-1"
      d="m237.97,1c-4.7,7.8-18.1,13.6-27.7,17.9-10.5,2.1-25.5-5.8-29.9-12.7-3,15.7,0,27.6,7.9,33.9,13.7,10.4,6.7,21,4.1,23.6-11.4,11.3-32.9,6-43.4-10.5C120.77,8.8,90.57,1,73.07,1,14.47,3.1,4.97,48.8,7.67,71.4c-10.5,18.8-7.3,23.5.6,31.3,39.3,36.5,112.6,33.9,146.6,20.9,35.6-14.6,53.8-42.1,55.5-56.9,31.3-20.9,32-56.1,27.6-65.7ZM49.97,90.3c-6.6,4.7-14.9,6.2-22.9,6.2s-15.1-1.3-20.2-2.3h-.2c-1.1-.2-1.9-1.3-1.7-2.4s1.2-1.8,2.3-1.6h.2c9.9,1.8,28.4,5.2,40.1-3.2.9-.6,2.1-.4,2.8.5s.5,2.2-.4,2.8Zm-1.2-35.5c-6.6,0-12-5.4-12-12s5.4-12,12-12,12,5.4,12,12-5.4,12-12,12Z" />
  </g>
</svg>